<mxfile host="Electron" modified="2024-01-16T14:54:58.310Z" agent="Mozilla/5.0 (Windows NT 10.0; Win64; x64) AppleWebKit/537.36 (KHTML, like Gecko) draw.io/22.1.18 Chrome/120.0.6099.199 Electron/28.1.2 Safari/537.36" etag="I0Yt23OdwnXOlVhBoXhG" version="22.1.18" type="device">
  <diagram name="Page-1" id="gDf6kb3_1KPyfmzWNwo0">
    <mxGraphModel dx="624" dy="774" grid="1" gridSize="10" guides="1" tooltips="1" connect="1" arrows="1" fold="1" page="1" pageScale="1" pageWidth="850" pageHeight="1100" math="0" shadow="0">
      <root>
        <mxCell id="0" />
        <mxCell id="1" parent="0" />
        <mxCell id="87SUb0XNpQbdfTT2aZUC-7" style="edgeStyle=orthogonalEdgeStyle;rounded=0;orthogonalLoop=1;jettySize=auto;html=1;entryX=0.5;entryY=1;entryDx=0;entryDy=0;exitX=0;exitY=0.75;exitDx=0;exitDy=0;" edge="1" parent="1" source="87SUb0XNpQbdfTT2aZUC-1" target="87SUb0XNpQbdfTT2aZUC-3">
          <mxGeometry relative="1" as="geometry">
            <Array as="points">
              <mxPoint x="120" y="600" />
            </Array>
          </mxGeometry>
        </mxCell>
        <mxCell id="87SUb0XNpQbdfTT2aZUC-11" style="edgeStyle=orthogonalEdgeStyle;rounded=0;orthogonalLoop=1;jettySize=auto;html=1;entryX=0.5;entryY=1;entryDx=0;entryDy=0;" edge="1" parent="1" target="87SUb0XNpQbdfTT2aZUC-4">
          <mxGeometry relative="1" as="geometry">
            <mxPoint x="535" y="630" as="sourcePoint" />
            <Array as="points">
              <mxPoint x="535" y="600" />
              <mxPoint x="710" y="600" />
            </Array>
          </mxGeometry>
        </mxCell>
        <mxCell id="87SUb0XNpQbdfTT2aZUC-1" value="0.0" style="swimlane;whiteSpace=wrap;html=1;rounded=1;arcSize=50;" vertex="1" parent="1">
          <mxGeometry x="315" y="450" width="220" height="200" as="geometry" />
        </mxCell>
        <mxCell id="87SUb0XNpQbdfTT2aZUC-2" value="Proposed Automated Attendance System for Learning Resource Center" style="text;html=1;strokeColor=none;fillColor=none;align=center;verticalAlign=middle;whiteSpace=wrap;rounded=0;" vertex="1" parent="87SUb0XNpQbdfTT2aZUC-1">
          <mxGeometry x="35" y="62.5" width="150" height="75" as="geometry" />
        </mxCell>
        <mxCell id="87SUb0XNpQbdfTT2aZUC-5" style="edgeStyle=orthogonalEdgeStyle;rounded=0;orthogonalLoop=1;jettySize=auto;html=1;entryX=0;entryY=0.25;entryDx=0;entryDy=0;" edge="1" parent="1" source="87SUb0XNpQbdfTT2aZUC-3" target="87SUb0XNpQbdfTT2aZUC-1">
          <mxGeometry relative="1" as="geometry">
            <Array as="points">
              <mxPoint x="120" y="500" />
            </Array>
          </mxGeometry>
        </mxCell>
        <mxCell id="87SUb0XNpQbdfTT2aZUC-13" style="edgeStyle=orthogonalEdgeStyle;rounded=0;orthogonalLoop=1;jettySize=auto;html=1;entryX=0;entryY=0.5;entryDx=0;entryDy=0;" edge="1" parent="1">
          <mxGeometry relative="1" as="geometry">
            <mxPoint x="180" y="530" as="sourcePoint" />
            <mxPoint x="315" y="530" as="targetPoint" />
          </mxGeometry>
        </mxCell>
        <mxCell id="87SUb0XNpQbdfTT2aZUC-16" style="edgeStyle=orthogonalEdgeStyle;rounded=0;orthogonalLoop=1;jettySize=auto;html=1;exitX=0.25;exitY=1;exitDx=0;exitDy=0;" edge="1" parent="1" source="87SUb0XNpQbdfTT2aZUC-3">
          <mxGeometry relative="1" as="geometry">
            <mxPoint x="315" y="630" as="targetPoint" />
            <mxPoint x="85" y="580" as="sourcePoint" />
            <Array as="points">
              <mxPoint x="90" y="630" />
            </Array>
          </mxGeometry>
        </mxCell>
        <mxCell id="87SUb0XNpQbdfTT2aZUC-3" value="ADMIN" style="rounded=0;whiteSpace=wrap;html=1;" vertex="1" parent="1">
          <mxGeometry x="60" y="520" width="120" height="60" as="geometry" />
        </mxCell>
        <mxCell id="87SUb0XNpQbdfTT2aZUC-8" style="edgeStyle=orthogonalEdgeStyle;rounded=0;orthogonalLoop=1;jettySize=auto;html=1;entryX=1;entryY=0.25;entryDx=0;entryDy=0;" edge="1" parent="1" source="87SUb0XNpQbdfTT2aZUC-4" target="87SUb0XNpQbdfTT2aZUC-1">
          <mxGeometry relative="1" as="geometry">
            <Array as="points">
              <mxPoint x="710" y="500" />
            </Array>
          </mxGeometry>
        </mxCell>
        <mxCell id="87SUb0XNpQbdfTT2aZUC-9" style="edgeStyle=orthogonalEdgeStyle;rounded=0;orthogonalLoop=1;jettySize=auto;html=1;entryX=1;entryY=0.5;entryDx=0;entryDy=0;" edge="1" parent="1" source="87SUb0XNpQbdfTT2aZUC-4" target="87SUb0XNpQbdfTT2aZUC-1">
          <mxGeometry relative="1" as="geometry" />
        </mxCell>
        <mxCell id="87SUb0XNpQbdfTT2aZUC-4" value="USER" style="rounded=0;whiteSpace=wrap;html=1;" vertex="1" parent="1">
          <mxGeometry x="650" y="520" width="120" height="60" as="geometry" />
        </mxCell>
        <mxCell id="87SUb0XNpQbdfTT2aZUC-18" value="Fingerprint" style="text;html=1;strokeColor=none;fillColor=none;align=center;verticalAlign=middle;whiteSpace=wrap;rounded=0;" vertex="1" parent="1">
          <mxGeometry x="570" y="480" width="60" height="30" as="geometry" />
        </mxCell>
        <mxCell id="87SUb0XNpQbdfTT2aZUC-19" value="ID Number" style="text;html=1;strokeColor=none;fillColor=none;align=center;verticalAlign=middle;whiteSpace=wrap;rounded=0;" vertex="1" parent="1">
          <mxGeometry x="570" y="530" width="60" height="30" as="geometry" />
        </mxCell>
        <mxCell id="87SUb0XNpQbdfTT2aZUC-21" value="Official Receipt" style="text;html=1;strokeColor=none;fillColor=none;align=center;verticalAlign=middle;whiteSpace=wrap;rounded=0;" vertex="1" parent="1">
          <mxGeometry x="550" y="580" width="100" height="30" as="geometry" />
        </mxCell>
        <mxCell id="87SUb0XNpQbdfTT2aZUC-22" value="New Book Details" style="text;html=1;strokeColor=none;fillColor=none;align=center;verticalAlign=middle;whiteSpace=wrap;rounded=0;" vertex="1" parent="1">
          <mxGeometry x="150" y="480" width="110" height="30" as="geometry" />
        </mxCell>
        <mxCell id="87SUb0XNpQbdfTT2aZUC-23" style="edgeStyle=orthogonalEdgeStyle;rounded=0;orthogonalLoop=1;jettySize=auto;html=1;entryX=0;entryY=0.5;entryDx=0;entryDy=0;" edge="1" parent="1">
          <mxGeometry relative="1" as="geometry">
            <mxPoint x="180" y="565" as="sourcePoint" />
            <mxPoint x="315" y="565" as="targetPoint" />
          </mxGeometry>
        </mxCell>
        <mxCell id="87SUb0XNpQbdfTT2aZUC-24" value="Accession Number" style="text;html=1;strokeColor=none;fillColor=none;align=center;verticalAlign=middle;whiteSpace=wrap;rounded=0;" vertex="1" parent="1">
          <mxGeometry x="190" y="510" width="110" height="30" as="geometry" />
        </mxCell>
        <mxCell id="87SUb0XNpQbdfTT2aZUC-25" value="&lt;br&gt;Due Date" style="text;html=1;strokeColor=none;fillColor=none;align=center;verticalAlign=middle;whiteSpace=wrap;rounded=0;" vertex="1" parent="1">
          <mxGeometry x="190" y="535" width="110" height="30" as="geometry" />
        </mxCell>
        <mxCell id="87SUb0XNpQbdfTT2aZUC-26" value="User Informations" style="text;html=1;strokeColor=none;fillColor=none;align=center;verticalAlign=middle;whiteSpace=wrap;rounded=0;" vertex="1" parent="1">
          <mxGeometry x="150" y="610" width="110" height="30" as="geometry" />
        </mxCell>
        <mxCell id="87SUb0XNpQbdfTT2aZUC-27" value="Attendance Report" style="text;html=1;strokeColor=none;fillColor=none;align=center;verticalAlign=middle;whiteSpace=wrap;rounded=0;" vertex="1" parent="1">
          <mxGeometry x="160" y="580" width="110" height="30" as="geometry" />
        </mxCell>
      </root>
    </mxGraphModel>
  </diagram>
</mxfile>
